<svg width="86" height="25" viewBox="0 0 86 25" fill="none" xmlns="http://www.w3.org/2000/svg">
<g>
<path d="M34.4697 18.7898C33.2735 18.7898 32.3883 18.549 31.5509 17.9294C31.436 17.8424 31.3603 17.7135 31.3402 17.5708C31.3202 17.4281 31.3576 17.2833 31.444 17.1681C31.4636 17.1421 31.4853 17.1179 31.509 17.0955L32.4201 16.2516C32.511 16.1655 32.6291 16.1139 32.754 16.1057C32.8789 16.0975 33.0028 16.1333 33.1041 16.2068C33.4393 16.4576 33.8305 16.624 34.4708 16.624C35.739 16.624 36.5593 15.9241 36.5593 14.4907V6.85082C36.5593 6.68924 36.6235 6.53428 36.7377 6.41997C36.8518 6.30566 37.0068 6.24137 37.1683 6.24121H38.5422C38.7037 6.24121 38.8586 6.30538 38.9728 6.41959C39.087 6.5338 39.1512 6.68871 39.1512 6.85023V14.5951C39.1512 17.3381 36.9299 18.7892 34.4702 18.7892" fill="white"/>
<path d="M46.7592 18.7898C44.0358 18.7898 41.8729 17.0595 41.8729 14.4228V6.81364C41.8723 6.66255 41.9317 6.51739 42.038 6.41006C42.1444 6.30272 42.289 6.24199 42.44 6.24121H43.8912C44.0422 6.24121 44.1871 6.30121 44.2939 6.40801C44.4007 6.5148 44.4607 6.65965 44.4607 6.81069V14.3325C44.4607 15.7654 45.3571 16.6222 46.7551 16.6222C48.1531 16.6222 49.0672 15.7677 49.0672 14.3325V6.81364C49.0668 6.73885 49.0812 6.66472 49.1095 6.59548C49.1377 6.52624 49.1793 6.46325 49.2319 6.41009C49.2845 6.35694 49.3471 6.31466 49.4161 6.28569C49.485 6.25671 49.559 6.2416 49.6338 6.24121H51.0666C51.2176 6.24121 51.3625 6.30121 51.4693 6.40801C51.5761 6.5148 51.6361 6.65965 51.6361 6.81069V14.4181C51.6361 17.0566 49.4715 18.7851 46.7504 18.7851" fill="white"/>
<path d="M58.1906 18.7898C56.3452 18.7898 54.9065 18.4516 53.6755 17.4413C53.6356 17.4084 53.6027 17.3678 53.5786 17.3221C53.5545 17.2764 53.5396 17.2263 53.5349 17.1748C53.5302 17.1233 53.5357 17.0714 53.5511 17.022C53.5665 16.9727 53.5915 16.9269 53.6247 16.8872C53.6346 16.8751 53.6452 16.8637 53.6566 16.853L54.7058 15.8698C54.7917 15.7909 54.9026 15.7446 55.0191 15.7393C55.1357 15.7339 55.2504 15.7696 55.3432 15.8403C56.1405 16.421 57.1496 16.6234 58.2289 16.6234C59.758 16.6234 60.5788 16.0811 60.5788 15.0855C60.5788 14.6482 60.4484 14.2812 60.1657 14.0363C59.9043 13.8085 59.6063 13.6875 58.9914 13.6002L57.3874 13.3901C56.2479 13.2331 55.4105 12.9009 54.8138 12.3591C54.1794 11.7649 53.8625 10.9605 53.8625 9.90948C53.8625 7.68822 55.6152 6.13263 58.4874 6.13263C60.1286 6.13263 61.3643 6.47077 62.4224 7.28575C62.4633 7.31768 62.4976 7.35738 62.5231 7.40256C62.5487 7.44773 62.5651 7.49751 62.5714 7.54904C62.5777 7.60056 62.5738 7.65282 62.5599 7.70283C62.5459 7.75284 62.5223 7.79961 62.4903 7.84047C62.4773 7.85744 62.4629 7.87323 62.4472 7.88768L61.444 8.81773C61.3595 8.89473 61.2511 8.94034 61.137 8.94689C61.0229 8.95345 60.91 8.92055 60.8172 8.85373C60.0501 8.32733 59.1802 8.24707 58.4119 8.24707C57.0321 8.24707 56.3612 8.96349 56.3612 9.81978C56.3585 9.98789 56.3922 10.1546 56.46 10.3085C56.5277 10.4624 56.6279 10.5998 56.7536 10.7115C57.0138 10.9393 57.4423 11.1305 57.984 11.2001L59.5502 11.4096C60.7641 11.5677 61.5254 11.8817 62.0878 12.3715C62.796 12.9976 63.1129 13.9094 63.1129 15.0106C63.1129 17.4219 60.9683 18.7874 58.19 18.7874" fill="white"/>
<path d="M70.6324 8.41003V18.1537C70.6324 18.2946 70.5764 18.4297 70.4768 18.5293C70.3772 18.6289 70.2421 18.6848 70.1013 18.6848H68.5728C68.432 18.6848 68.2969 18.6289 68.1973 18.5293C68.0976 18.4297 68.0417 18.2946 68.0417 18.1537V8.41003H65.1046C64.9637 8.41003 64.8286 8.35407 64.729 8.25447C64.6294 8.15486 64.5735 8.01977 64.5735 7.87891V6.773C64.5735 6.63214 64.6294 6.49705 64.729 6.39744C64.8286 6.29784 64.9637 6.24188 65.1046 6.24188H73.5689C73.7097 6.24188 73.8448 6.29784 73.9444 6.39744C74.044 6.49705 74.1 6.63214 74.1 6.773V7.87773C74.1004 7.94772 74.0869 8.01711 74.0604 8.08189C74.0339 8.14666 73.9948 8.20556 73.9455 8.2552C73.8961 8.30483 73.8374 8.34421 73.7728 8.37109C73.7082 8.39797 73.6389 8.4118 73.5689 8.4118L70.6324 8.41003Z" fill="white"/>
<path d="M83.8708 17.4278C82.9395 18.3024 81.8006 18.7904 80.2904 18.7904C78.7803 18.7904 77.623 18.3012 76.6906 17.4278C75.3475 16.1685 75.3852 14.6135 75.3852 12.4642C75.3852 10.3149 75.3475 8.75876 76.6906 7.5006C77.6224 6.62602 78.7797 6.13739 80.2904 6.13739C81.8012 6.13739 82.9383 6.62661 83.8708 7.5006C85.2133 8.75876 85.1938 10.3143 85.1938 12.4642C85.1938 14.6141 85.2133 16.1667 83.8708 17.4278ZM81.9487 8.96826C81.5757 8.56696 80.9974 8.30436 80.2898 8.30436C79.5823 8.30436 78.9839 8.56696 78.6109 8.96826C78.1069 9.49288 77.9765 10.0689 77.9765 12.4642C77.9765 14.8595 78.1069 15.4349 78.6109 15.9596C78.9839 16.3608 79.5793 16.6235 80.2898 16.6235C81.0003 16.6235 81.5757 16.3608 81.9487 15.9596C82.4533 15.4349 82.602 14.859 82.602 12.4642C82.602 10.0694 82.4533 9.49288 81.9487 8.96826Z" fill="white"/>
<path d="M12.5008 0C5.59622 0 0 5.59681 0 12.5014C0 19.4059 5.59622 25.0004 12.5008 25.0004C19.4053 25.0004 24.9992 19.4036 24.9992 12.5014C24.9992 5.59918 19.4053 0 12.5008 0ZM12.5043 2.60779C16.8253 2.60779 20.5301 5.19848 22.0792 8.87913C22.2643 9.32574 22.2643 9.82757 22.0794 10.2742C21.8945 10.7209 21.5397 11.0758 21.0931 11.2609C21.0671 11.2715 21.0412 11.2821 21.0146 11.2916C18.2904 12.3009 15.4078 12.8157 12.5025 12.8118C9.51253 12.8164 6.54717 12.2711 3.75442 11.2031C3.5585 11.1295 3.37897 11.0181 3.22611 10.8752C3.07324 10.7323 2.95002 10.5607 2.8635 10.3701C2.77697 10.1796 2.72882 9.97388 2.7218 9.76473C2.71478 9.55558 2.74904 9.34709 2.8226 9.15118V9.14587C2.82454 9.13896 2.82711 9.13225 2.83027 9.12581C4.31918 5.31473 8.09012 2.60779 12.5043 2.60779ZM12.5043 22.2592C8.05354 22.2592 4.2643 19.5127 2.8468 15.6745C2.55586 14.8843 3.33484 14.1136 4.16043 14.3721C6.86056 15.2131 9.67271 15.6393 12.5008 15.6361C15.3311 15.6388 18.1455 15.2116 20.8476 14.3691C21.6738 14.1112 22.4516 14.882 22.1577 15.6716C20.7378 19.5074 16.9504 22.2563 12.5002 22.2563" fill="white"/>
</g>
</svg>
